<?xml version="1.0" encoding="UTF-8" standalone="no"?>
<!-- Created with Inkscape (http://www.inkscape.org/) -->

<svg
   xmlns:dc="http://purl.org/dc/elements/1.1/"
   xmlns:cc="http://creativecommons.org/ns#"
   xmlns:rdf="http://www.w3.org/1999/02/22-rdf-syntax-ns#"
   xmlns:svg="http://www.w3.org/2000/svg"
   xmlns="http://www.w3.org/2000/svg"
   xmlns:sodipodi="http://sodipodi.sourceforge.net/DTD/sodipodi-0.dtd"
   xmlns:inkscape="http://www.inkscape.org/namespaces/inkscape"
   width="320"
   height="320"
   viewBox="0 0 320 320"
   version="1.1"
   id="SVGRoot"
   inkscape:version="0.92.4 (5da689c313, 2019-01-14)"
   sodipodi:docname="3.svg"
   inkscape:export-filename="C:\Users\JuanJoseGonGi\python\proyecto2\img\pipe\curve\2.png"
   inkscape:export-xdpi="12"
   inkscape:export-ydpi="12">
  <title
     id="title6205">pipe_curve3</title>
  <defs
     id="defs6136" />
  <sodipodi:namedview
     id="base"
     pagecolor="#ffffff"
     bordercolor="#666666"
     borderopacity="1.0"
     inkscape:pageopacity="0.0"
     inkscape:pageshadow="2"
     inkscape:zoom="1"
     inkscape:cx="279.45783"
     inkscape:cy="212.30345"
     inkscape:document-units="px"
     inkscape:current-layer="layer1"
     showgrid="false"
     inkscape:window-width="1366"
     inkscape:window-height="745"
     inkscape:window-x="-8"
     inkscape:window-y="-8"
     inkscape:window-maximized="1"
     inkscape:grid-bbox="true"
     inkscape:showpageshadow="false" />
  <metadata
     id="metadata6139">
    <rdf:RDF>
      <cc:Work
         rdf:about="">
        <dc:format>image/svg+xml</dc:format>
        <dc:type
           rdf:resource="http://purl.org/dc/dcmitype/StillImage" />
        <dc:title>pipe_curve3</dc:title>
      </cc:Work>
    </rdf:RDF>
  </metadata>
  <g
     inkscape:label="Capa 1"
     inkscape:groupmode="layer"
     id="layer1"
     transform="translate(0,64)">
    <path
       style="fill:#3d9970;fill-opacity:1;stroke-width:1.15349984"
       d="M 96 32 L 96 96 L 160 96 L 256 96 L 256 32 L 96 32 z "
       transform="translate(0,-64)"
       id="rect6158-6-5-7" />
    <g
       id="g165"
       transform="translate(0,96)" />
    <path
       style="fill:#2ecc40;fill-opacity:1;stroke:none;stroke-width:0.78879535;stroke-miterlimit:4;stroke-dasharray:none;stroke-opacity:1"
       d="M 32 0 L 32 32 L 64 32 L 64 64 L 32 64 L 32 32 L 0 32 L 0 320 L 32 320 L 32 288 L 287 288 L 287 287 L 288 287 L 288 32 L 320 32 L 320 0 L 32 0 z M 96 32 L 256 32 L 256 256 L 32 256 L 32 96 L 64 96 L 93 96 L 96 96 L 96 32 z "
       id="rect175"
       transform="translate(0,-64)" />
    <rect
       style="fill:#0074d9;fill-opacity:1;stroke:none;stroke-width:1.65215826;stroke-miterlimit:4;stroke-dasharray:none;stroke-opacity:1"
       id="rect310-1-5"
       width="224"
       height="160"
       x="32"
       y="32" />
  </g>
</svg>
